<mxfile host="Electron" modified="2024-05-03T18:15:18.872Z" agent="Mozilla/5.0 (Windows NT 10.0; Win64; x64) AppleWebKit/537.36 (KHTML, like Gecko) draw.io/24.0.4 Chrome/120.0.6099.109 Electron/28.1.0 Safari/537.36" etag="6CVc2VB0r2gFDbPb0rvf" version="24.0.4" type="device">
  <diagram name="Page-1" id="-SbYrapaGVK7GH5JnfJK">
    <mxGraphModel dx="2333" dy="1380" grid="1" gridSize="10" guides="1" tooltips="1" connect="1" arrows="1" fold="1" page="1" pageScale="1" pageWidth="850" pageHeight="1100" math="0" shadow="0">
      <root>
        <mxCell id="0" />
        <mxCell id="1" parent="0" />
        <mxCell id="2BBGNhFj9VwmDJDpPGrn-1" value="Người dùng" style="swimlane;whiteSpace=wrap;html=1;fontSize=20;startSize=29;" parent="1" vertex="1">
          <mxGeometry x="20" y="31" width="440" height="1040" as="geometry" />
        </mxCell>
        <mxCell id="2BBGNhFj9VwmDJDpPGrn-5" value="Chọn&amp;nbsp; giỏ hàng" style="rounded=1;whiteSpace=wrap;html=1;" parent="2BBGNhFj9VwmDJDpPGrn-1" vertex="1">
          <mxGeometry x="150" y="220" width="140" height="60" as="geometry" />
        </mxCell>
        <mxCell id="3HSLFsi9o2FYeXKbJJw0-2" style="edgeStyle=orthogonalEdgeStyle;rounded=0;orthogonalLoop=1;jettySize=auto;html=1;entryX=0.5;entryY=0;entryDx=0;entryDy=0;" parent="2BBGNhFj9VwmDJDpPGrn-1" source="2BBGNhFj9VwmDJDpPGrn-8" target="2BBGNhFj9VwmDJDpPGrn-5" edge="1">
          <mxGeometry relative="1" as="geometry" />
        </mxCell>
        <mxCell id="2BBGNhFj9VwmDJDpPGrn-8" value="Trang chủ" style="rounded=1;whiteSpace=wrap;html=1;" parent="2BBGNhFj9VwmDJDpPGrn-1" vertex="1">
          <mxGeometry x="150" y="110" width="140" height="60" as="geometry" />
        </mxCell>
        <mxCell id="3HSLFsi9o2FYeXKbJJw0-4" style="edgeStyle=orthogonalEdgeStyle;rounded=0;orthogonalLoop=1;jettySize=auto;html=1;startArrow=classic;startFill=1;endArrow=none;endFill=0;" parent="2BBGNhFj9VwmDJDpPGrn-1" source="2BBGNhFj9VwmDJDpPGrn-14" edge="1">
          <mxGeometry relative="1" as="geometry">
            <mxPoint x="222.5" y="410" as="targetPoint" />
            <Array as="points">
              <mxPoint x="137.5" y="450" />
              <mxPoint x="223.5" y="450" />
              <mxPoint x="223.5" y="410" />
            </Array>
          </mxGeometry>
        </mxCell>
        <mxCell id="3HSLFsi9o2FYeXKbJJw0-53" style="edgeStyle=orthogonalEdgeStyle;rounded=0;orthogonalLoop=1;jettySize=auto;html=1;entryX=0;entryY=0.5;entryDx=0;entryDy=0;" parent="2BBGNhFj9VwmDJDpPGrn-1" source="2BBGNhFj9VwmDJDpPGrn-14" target="2BBGNhFj9VwmDJDpPGrn-8" edge="1">
          <mxGeometry relative="1" as="geometry">
            <Array as="points">
              <mxPoint x="30" y="500" />
              <mxPoint x="30" y="140" />
            </Array>
          </mxGeometry>
        </mxCell>
        <mxCell id="2BBGNhFj9VwmDJDpPGrn-14" value="Tiếp tục mua sắm" style="rounded=1;whiteSpace=wrap;html=1;" parent="2BBGNhFj9VwmDJDpPGrn-1" vertex="1">
          <mxGeometry x="82.5" y="470" width="110" height="60" as="geometry" />
        </mxCell>
        <mxCell id="3HSLFsi9o2FYeXKbJJw0-5" style="edgeStyle=orthogonalEdgeStyle;rounded=0;orthogonalLoop=1;jettySize=auto;html=1;startArrow=classic;startFill=1;endArrow=none;endFill=0;" parent="2BBGNhFj9VwmDJDpPGrn-1" source="2BBGNhFj9VwmDJDpPGrn-15" edge="1">
          <mxGeometry relative="1" as="geometry">
            <mxPoint x="222.5" y="410" as="targetPoint" />
            <Array as="points">
              <mxPoint x="302.5" y="450" />
              <mxPoint x="223.5" y="450" />
              <mxPoint x="223.5" y="410" />
            </Array>
          </mxGeometry>
        </mxCell>
        <mxCell id="2BBGNhFj9VwmDJDpPGrn-15" value="Thanh Toán" style="rounded=1;whiteSpace=wrap;html=1;" parent="2BBGNhFj9VwmDJDpPGrn-1" vertex="1">
          <mxGeometry x="247.5" y="470" width="110" height="60" as="geometry" />
        </mxCell>
        <mxCell id="2BBGNhFj9VwmDJDpPGrn-13" value="" style="endArrow=none;html=1;rounded=0;strokeWidth=10;" parent="2BBGNhFj9VwmDJDpPGrn-1" edge="1">
          <mxGeometry width="50" height="50" relative="1" as="geometry">
            <mxPoint x="267.8" y="400" as="sourcePoint" />
            <mxPoint x="177.20999999999998" y="400" as="targetPoint" />
          </mxGeometry>
        </mxCell>
        <mxCell id="3HSLFsi9o2FYeXKbJJw0-9" style="edgeStyle=orthogonalEdgeStyle;rounded=0;orthogonalLoop=1;jettySize=auto;html=1;" parent="2BBGNhFj9VwmDJDpPGrn-1" source="2BBGNhFj9VwmDJDpPGrn-17" edge="1">
          <mxGeometry relative="1" as="geometry">
            <mxPoint x="220" y="680" as="targetPoint" />
            <Array as="points">
              <mxPoint x="220" y="660" />
              <mxPoint x="220" y="660" />
            </Array>
          </mxGeometry>
        </mxCell>
        <mxCell id="2BBGNhFj9VwmDJDpPGrn-17" value="Nhập thông tin cá nhân và địa chỉ nhận hàng" style="rounded=1;whiteSpace=wrap;html=1;" parent="2BBGNhFj9VwmDJDpPGrn-1" vertex="1">
          <mxGeometry x="137.5" y="590" width="165" height="60" as="geometry" />
        </mxCell>
        <mxCell id="3HSLFsi9o2FYeXKbJJw0-10" style="edgeStyle=orthogonalEdgeStyle;rounded=0;orthogonalLoop=1;jettySize=auto;html=1;startArrow=classic;startFill=1;endArrow=none;endFill=0;" parent="2BBGNhFj9VwmDJDpPGrn-1" source="2BBGNhFj9VwmDJDpPGrn-18" edge="1">
          <mxGeometry relative="1" as="geometry">
            <mxPoint x="220" y="700" as="targetPoint" />
            <Array as="points">
              <mxPoint x="135" y="710" />
              <mxPoint x="220" y="710" />
              <mxPoint x="220" y="700" />
            </Array>
          </mxGeometry>
        </mxCell>
        <mxCell id="3HSLFsi9o2FYeXKbJJw0-24" style="edgeStyle=orthogonalEdgeStyle;rounded=0;orthogonalLoop=1;jettySize=auto;html=1;" parent="2BBGNhFj9VwmDJDpPGrn-1" source="2BBGNhFj9VwmDJDpPGrn-18" edge="1">
          <mxGeometry relative="1" as="geometry">
            <mxPoint x="220" y="820" as="targetPoint" />
            <Array as="points">
              <mxPoint x="135" y="800" />
              <mxPoint x="221" y="800" />
              <mxPoint x="221" y="820" />
            </Array>
          </mxGeometry>
        </mxCell>
        <mxCell id="2BBGNhFj9VwmDJDpPGrn-18" value="Thanh toán khi nhận hàng" style="rounded=1;whiteSpace=wrap;html=1;" parent="2BBGNhFj9VwmDJDpPGrn-1" vertex="1">
          <mxGeometry x="60" y="730" width="150" height="50" as="geometry" />
        </mxCell>
        <mxCell id="2BBGNhFj9VwmDJDpPGrn-19" value="" style="endArrow=none;html=1;rounded=0;strokeWidth=10;" parent="2BBGNhFj9VwmDJDpPGrn-1" edge="1">
          <mxGeometry width="50" height="50" relative="1" as="geometry">
            <mxPoint x="265.3" y="690" as="sourcePoint" />
            <mxPoint x="174.70999999999998" y="690" as="targetPoint" />
          </mxGeometry>
        </mxCell>
        <mxCell id="3HSLFsi9o2FYeXKbJJw0-11" style="edgeStyle=orthogonalEdgeStyle;rounded=0;orthogonalLoop=1;jettySize=auto;html=1;startArrow=classic;startFill=1;endArrow=none;endFill=0;" parent="2BBGNhFj9VwmDJDpPGrn-1" source="2BBGNhFj9VwmDJDpPGrn-20" edge="1">
          <mxGeometry relative="1" as="geometry">
            <mxPoint x="220" y="690" as="targetPoint" />
            <Array as="points">
              <mxPoint x="305" y="710" />
              <mxPoint x="220" y="710" />
              <mxPoint x="220" y="700" />
            </Array>
          </mxGeometry>
        </mxCell>
        <mxCell id="3HSLFsi9o2FYeXKbJJw0-23" style="edgeStyle=orthogonalEdgeStyle;rounded=0;orthogonalLoop=1;jettySize=auto;html=1;" parent="2BBGNhFj9VwmDJDpPGrn-1" source="2BBGNhFj9VwmDJDpPGrn-20" edge="1">
          <mxGeometry relative="1" as="geometry">
            <mxPoint x="220" y="820" as="targetPoint" />
            <Array as="points">
              <mxPoint x="305" y="800" />
              <mxPoint x="220" y="800" />
              <mxPoint x="220" y="820" />
            </Array>
          </mxGeometry>
        </mxCell>
        <mxCell id="2BBGNhFj9VwmDJDpPGrn-20" value="Thanh toán Online" style="rounded=1;whiteSpace=wrap;html=1;" parent="2BBGNhFj9VwmDJDpPGrn-1" vertex="1">
          <mxGeometry x="270" y="730" width="110" height="50" as="geometry" />
        </mxCell>
        <mxCell id="2BBGNhFj9VwmDJDpPGrn-37" value="" style="endArrow=none;html=1;rounded=0;strokeWidth=10;" parent="2BBGNhFj9VwmDJDpPGrn-1" edge="1">
          <mxGeometry width="50" height="50" relative="1" as="geometry">
            <mxPoint x="265.3" y="830" as="sourcePoint" />
            <mxPoint x="174.70999999999998" y="830" as="targetPoint" />
          </mxGeometry>
        </mxCell>
        <mxCell id="3HSLFsi9o2FYeXKbJJw0-26" style="edgeStyle=orthogonalEdgeStyle;rounded=0;orthogonalLoop=1;jettySize=auto;html=1;endArrow=none;endFill=0;startArrow=classic;startFill=1;" parent="2BBGNhFj9VwmDJDpPGrn-1" source="2BBGNhFj9VwmDJDpPGrn-47" edge="1">
          <mxGeometry relative="1" as="geometry">
            <mxPoint x="220" y="830" as="targetPoint" />
            <Array as="points">
              <mxPoint x="220" y="830" />
            </Array>
          </mxGeometry>
        </mxCell>
        <mxCell id="2BBGNhFj9VwmDJDpPGrn-47" value="Đặt hàng" style="rounded=1;whiteSpace=wrap;html=1;" parent="2BBGNhFj9VwmDJDpPGrn-1" vertex="1">
          <mxGeometry x="165" y="890" width="110" height="50" as="geometry" />
        </mxCell>
        <mxCell id="3HSLFsi9o2FYeXKbJJw0-51" value="" style="edgeStyle=orthogonalEdgeStyle;rounded=0;orthogonalLoop=1;jettySize=auto;html=1;" parent="2BBGNhFj9VwmDJDpPGrn-1" source="3HSLFsi9o2FYeXKbJJw0-47" target="2BBGNhFj9VwmDJDpPGrn-8" edge="1">
          <mxGeometry relative="1" as="geometry" />
        </mxCell>
        <mxCell id="3HSLFsi9o2FYeXKbJJw0-47" value="" style="ellipse;html=1;shape=startState;fillColor=#000000;strokeColor=#ff0000;" parent="2BBGNhFj9VwmDJDpPGrn-1" vertex="1">
          <mxGeometry x="195" y="36" width="50" height="50" as="geometry" />
        </mxCell>
        <mxCell id="2BBGNhFj9VwmDJDpPGrn-3" value="Hệ thống" style="swimlane;whiteSpace=wrap;html=1;startSize=29;fontSize=20;" parent="1" vertex="1">
          <mxGeometry x="460" y="31" width="540" height="1750" as="geometry" />
        </mxCell>
        <mxCell id="2BBGNhFj9VwmDJDpPGrn-6" value="Thông báo chưa chọn sản phẩm nào vào giỏ hàng" style="rounded=1;whiteSpace=wrap;html=1;" parent="2BBGNhFj9VwmDJDpPGrn-3" vertex="1">
          <mxGeometry x="197.5" y="100" width="165" height="60" as="geometry" />
        </mxCell>
        <mxCell id="3HSLFsi9o2FYeXKbJJw0-14" style="edgeStyle=orthogonalEdgeStyle;rounded=0;orthogonalLoop=1;jettySize=auto;html=1;entryX=0.5;entryY=1;entryDx=0;entryDy=0;" parent="2BBGNhFj9VwmDJDpPGrn-3" source="2BBGNhFj9VwmDJDpPGrn-7" edge="1">
          <mxGeometry relative="1" as="geometry">
            <mxPoint x="280" y="160" as="targetPoint" />
          </mxGeometry>
        </mxCell>
        <mxCell id="3HSLFsi9o2FYeXKbJJw0-17" value="[Nếu chưa chọn sản phẩm vào giỏ hàng]" style="edgeLabel;html=1;align=center;verticalAlign=middle;resizable=0;points=[];" parent="3HSLFsi9o2FYeXKbJJw0-14" vertex="1" connectable="0">
          <mxGeometry x="-0.03" y="1" relative="1" as="geometry">
            <mxPoint as="offset" />
          </mxGeometry>
        </mxCell>
        <mxCell id="3HSLFsi9o2FYeXKbJJw0-15" style="edgeStyle=orthogonalEdgeStyle;rounded=0;orthogonalLoop=1;jettySize=auto;html=1;" parent="2BBGNhFj9VwmDJDpPGrn-3" source="2BBGNhFj9VwmDJDpPGrn-7" edge="1">
          <mxGeometry relative="1" as="geometry">
            <mxPoint x="280" y="360" as="targetPoint" />
          </mxGeometry>
        </mxCell>
        <mxCell id="3HSLFsi9o2FYeXKbJJw0-18" value="[Nếu đã có sản phẩm trong giỏ hàng]" style="edgeLabel;html=1;align=center;verticalAlign=middle;resizable=0;points=[];" parent="3HSLFsi9o2FYeXKbJJw0-15" vertex="1" connectable="0">
          <mxGeometry x="-0.0922" y="-3" relative="1" as="geometry">
            <mxPoint as="offset" />
          </mxGeometry>
        </mxCell>
        <mxCell id="2BBGNhFj9VwmDJDpPGrn-7" value="" style="rhombus;whiteSpace=wrap;html=1;" parent="2BBGNhFj9VwmDJDpPGrn-3" vertex="1">
          <mxGeometry x="240" y="210" width="80" height="80" as="geometry" />
        </mxCell>
        <mxCell id="3HSLFsi9o2FYeXKbJJw0-19" style="edgeStyle=orthogonalEdgeStyle;rounded=0;orthogonalLoop=1;jettySize=auto;html=1;" parent="2BBGNhFj9VwmDJDpPGrn-3" source="2BBGNhFj9VwmDJDpPGrn-9" edge="1">
          <mxGeometry relative="1" as="geometry">
            <mxPoint x="-170" y="400" as="targetPoint" />
          </mxGeometry>
        </mxCell>
        <mxCell id="2BBGNhFj9VwmDJDpPGrn-9" value="Hiển thị các sản phẩm" style="rounded=1;whiteSpace=wrap;html=1;" parent="2BBGNhFj9VwmDJDpPGrn-3" vertex="1">
          <mxGeometry x="197.5" y="370" width="165" height="60" as="geometry" />
        </mxCell>
        <mxCell id="2BBGNhFj9VwmDJDpPGrn-16" value="Chuyển sang giao diện thanh toán" style="rounded=1;whiteSpace=wrap;html=1;" parent="2BBGNhFj9VwmDJDpPGrn-3" vertex="1">
          <mxGeometry x="197.5" y="470" width="165" height="60" as="geometry" />
        </mxCell>
        <mxCell id="3HSLFsi9o2FYeXKbJJw0-32" style="edgeStyle=orthogonalEdgeStyle;rounded=0;orthogonalLoop=1;jettySize=auto;html=1;entryX=0;entryY=0.5;entryDx=0;entryDy=0;" parent="2BBGNhFj9VwmDJDpPGrn-3" source="2BBGNhFj9VwmDJDpPGrn-48" target="2BBGNhFj9VwmDJDpPGrn-49" edge="1">
          <mxGeometry relative="1" as="geometry">
            <Array as="points">
              <mxPoint x="278" y="710" />
              <mxPoint x="278" y="710" />
            </Array>
          </mxGeometry>
        </mxCell>
        <mxCell id="3HSLFsi9o2FYeXKbJJw0-33" value="[Nếu chọn nhận hàng tại chỗ]" style="edgeLabel;html=1;align=center;verticalAlign=middle;resizable=0;points=[];" parent="3HSLFsi9o2FYeXKbJJw0-32" vertex="1" connectable="0">
          <mxGeometry x="-0.3025" y="-1" relative="1" as="geometry">
            <mxPoint x="-1" y="18" as="offset" />
          </mxGeometry>
        </mxCell>
        <mxCell id="3HSLFsi9o2FYeXKbJJw0-35" style="edgeStyle=orthogonalEdgeStyle;rounded=0;orthogonalLoop=1;jettySize=auto;html=1;entryX=0.5;entryY=0;entryDx=0;entryDy=0;" parent="2BBGNhFj9VwmDJDpPGrn-3" source="2BBGNhFj9VwmDJDpPGrn-48" target="2BBGNhFj9VwmDJDpPGrn-62" edge="1">
          <mxGeometry relative="1" as="geometry" />
        </mxCell>
        <mxCell id="3HSLFsi9o2FYeXKbJJw0-36" value="[Nếu chọn thanh toán online]" style="edgeLabel;html=1;align=center;verticalAlign=middle;resizable=0;points=[];" parent="3HSLFsi9o2FYeXKbJJw0-35" vertex="1" connectable="0">
          <mxGeometry x="-0.4311" y="-2" relative="1" as="geometry">
            <mxPoint as="offset" />
          </mxGeometry>
        </mxCell>
        <mxCell id="2BBGNhFj9VwmDJDpPGrn-48" value="" style="rhombus;whiteSpace=wrap;html=1;" parent="2BBGNhFj9VwmDJDpPGrn-3" vertex="1">
          <mxGeometry x="240" y="730" width="80" height="80" as="geometry" />
        </mxCell>
        <mxCell id="2BBGNhFj9VwmDJDpPGrn-49" value="Hiển thị chi tiết đơn hàng và thông báo đặt hàng thành công" style="rounded=1;whiteSpace=wrap;html=1;" parent="2BBGNhFj9VwmDJDpPGrn-3" vertex="1">
          <mxGeometry x="320" y="600" width="180" height="60" as="geometry" />
        </mxCell>
        <mxCell id="3HSLFsi9o2FYeXKbJJw0-37" style="edgeStyle=orthogonalEdgeStyle;rounded=0;orthogonalLoop=1;jettySize=auto;html=1;entryX=0.5;entryY=0;entryDx=0;entryDy=0;" parent="2BBGNhFj9VwmDJDpPGrn-3" source="2BBGNhFj9VwmDJDpPGrn-62" target="2BBGNhFj9VwmDJDpPGrn-89" edge="1">
          <mxGeometry relative="1" as="geometry" />
        </mxCell>
        <mxCell id="2BBGNhFj9VwmDJDpPGrn-62" value="Chyển sang giao diện thanh toán Online" style="rounded=1;whiteSpace=wrap;html=1;" parent="2BBGNhFj9VwmDJDpPGrn-3" vertex="1">
          <mxGeometry x="190" y="880" width="180" height="60" as="geometry" />
        </mxCell>
        <mxCell id="2BBGNhFj9VwmDJDpPGrn-112" style="edgeStyle=orthogonalEdgeStyle;rounded=0;orthogonalLoop=1;jettySize=auto;html=1;" parent="2BBGNhFj9VwmDJDpPGrn-3" source="2BBGNhFj9VwmDJDpPGrn-89" edge="1">
          <mxGeometry relative="1" as="geometry">
            <mxPoint x="280" y="1100" as="targetPoint" />
          </mxGeometry>
        </mxCell>
        <mxCell id="2BBGNhFj9VwmDJDpPGrn-89" value="Chọn phương thức thanh toán" style="rounded=1;whiteSpace=wrap;html=1;" parent="2BBGNhFj9VwmDJDpPGrn-3" vertex="1">
          <mxGeometry x="190" y="1000" width="180" height="60" as="geometry" />
        </mxCell>
        <mxCell id="3HSLFsi9o2FYeXKbJJw0-46" style="edgeStyle=orthogonalEdgeStyle;rounded=0;orthogonalLoop=1;jettySize=auto;html=1;entryX=0.5;entryY=0;entryDx=0;entryDy=0;" parent="2BBGNhFj9VwmDJDpPGrn-3" source="2BBGNhFj9VwmDJDpPGrn-84" target="3HSLFsi9o2FYeXKbJJw0-43" edge="1">
          <mxGeometry relative="1" as="geometry" />
        </mxCell>
        <mxCell id="2BBGNhFj9VwmDJDpPGrn-84" value="Thông báo thanh toán thành công và hiển thị chi tiết đơn hàng&amp;nbsp;" style="rounded=1;whiteSpace=wrap;html=1;" parent="2BBGNhFj9VwmDJDpPGrn-3" vertex="1">
          <mxGeometry x="186.25" y="1540" width="187.5" height="60" as="geometry" />
        </mxCell>
        <mxCell id="2BBGNhFj9VwmDJDpPGrn-111" value="" style="group" parent="2BBGNhFj9VwmDJDpPGrn-3" vertex="1" connectable="0">
          <mxGeometry x="77.5" y="1110" width="405" height="120" as="geometry" />
        </mxCell>
        <mxCell id="2BBGNhFj9VwmDJDpPGrn-80" value="" style="endArrow=none;html=1;rounded=0;strokeWidth=10;" parent="2BBGNhFj9VwmDJDpPGrn-111" edge="1">
          <mxGeometry width="50" height="50" relative="1" as="geometry">
            <mxPoint x="251.54000000000002" as="sourcePoint" />
            <mxPoint x="160.95" as="targetPoint" />
            <Array as="points">
              <mxPoint x="200.95" />
            </Array>
          </mxGeometry>
        </mxCell>
        <mxCell id="2BBGNhFj9VwmDJDpPGrn-40" value="JCB" style="rounded=1;whiteSpace=wrap;html=1;" parent="2BBGNhFj9VwmDJDpPGrn-111" vertex="1">
          <mxGeometry x="247.5" y="45.559999999999945" width="70" height="30" as="geometry" />
        </mxCell>
        <mxCell id="2BBGNhFj9VwmDJDpPGrn-97" style="rounded=0;orthogonalLoop=1;jettySize=auto;html=1;" parent="2BBGNhFj9VwmDJDpPGrn-111" source="2BBGNhFj9VwmDJDpPGrn-38" edge="1">
          <mxGeometry relative="1" as="geometry">
            <mxPoint x="210" y="10" as="targetPoint" />
          </mxGeometry>
        </mxCell>
        <mxCell id="2BBGNhFj9VwmDJDpPGrn-103" style="rounded=0;orthogonalLoop=1;jettySize=auto;html=1;" parent="2BBGNhFj9VwmDJDpPGrn-111" source="2BBGNhFj9VwmDJDpPGrn-38" edge="1">
          <mxGeometry relative="1" as="geometry">
            <mxPoint x="210" y="109.99999999999977" as="targetPoint" />
          </mxGeometry>
        </mxCell>
        <mxCell id="2BBGNhFj9VwmDJDpPGrn-101" style="rounded=0;orthogonalLoop=1;jettySize=auto;html=1;" parent="2BBGNhFj9VwmDJDpPGrn-111" source="2BBGNhFj9VwmDJDpPGrn-39" edge="1">
          <mxGeometry relative="1" as="geometry">
            <mxPoint x="210" y="10" as="targetPoint" />
          </mxGeometry>
        </mxCell>
        <mxCell id="2BBGNhFj9VwmDJDpPGrn-107" style="rounded=0;orthogonalLoop=1;jettySize=auto;html=1;" parent="2BBGNhFj9VwmDJDpPGrn-111" source="2BBGNhFj9VwmDJDpPGrn-39" edge="1">
          <mxGeometry relative="1" as="geometry">
            <mxPoint x="210" y="110" as="targetPoint" />
          </mxGeometry>
        </mxCell>
        <mxCell id="2BBGNhFj9VwmDJDpPGrn-100" style="rounded=0;orthogonalLoop=1;jettySize=auto;html=1;" parent="2BBGNhFj9VwmDJDpPGrn-111" source="2BBGNhFj9VwmDJDpPGrn-40" edge="1">
          <mxGeometry relative="1" as="geometry">
            <mxPoint x="210" y="10" as="targetPoint" />
          </mxGeometry>
        </mxCell>
        <mxCell id="2BBGNhFj9VwmDJDpPGrn-106" style="rounded=0;orthogonalLoop=1;jettySize=auto;html=1;" parent="2BBGNhFj9VwmDJDpPGrn-111" source="2BBGNhFj9VwmDJDpPGrn-40" edge="1">
          <mxGeometry relative="1" as="geometry">
            <mxPoint x="210" y="109.99999999999977" as="targetPoint" />
          </mxGeometry>
        </mxCell>
        <mxCell id="2BBGNhFj9VwmDJDpPGrn-99" style="rounded=0;orthogonalLoop=1;jettySize=auto;html=1;" parent="2BBGNhFj9VwmDJDpPGrn-111" source="2BBGNhFj9VwmDJDpPGrn-41" edge="1">
          <mxGeometry relative="1" as="geometry">
            <mxPoint x="210" y="10" as="targetPoint" />
          </mxGeometry>
        </mxCell>
        <mxCell id="2BBGNhFj9VwmDJDpPGrn-105" style="rounded=0;orthogonalLoop=1;jettySize=auto;html=1;" parent="2BBGNhFj9VwmDJDpPGrn-111" source="2BBGNhFj9VwmDJDpPGrn-41" edge="1">
          <mxGeometry relative="1" as="geometry">
            <mxPoint x="210" y="109.99999999999977" as="targetPoint" />
          </mxGeometry>
        </mxCell>
        <mxCell id="2BBGNhFj9VwmDJDpPGrn-41" value="MasterCard" style="rounded=1;whiteSpace=wrap;html=1;" parent="2BBGNhFj9VwmDJDpPGrn-111" vertex="1">
          <mxGeometry x="172" y="45.559999999999945" width="70" height="30" as="geometry" />
        </mxCell>
        <mxCell id="2BBGNhFj9VwmDJDpPGrn-98" value="" style="rounded=0;orthogonalLoop=1;jettySize=auto;html=1;" parent="2BBGNhFj9VwmDJDpPGrn-111" source="2BBGNhFj9VwmDJDpPGrn-42" edge="1">
          <mxGeometry relative="1" as="geometry">
            <mxPoint x="210" y="10" as="targetPoint" />
          </mxGeometry>
        </mxCell>
        <mxCell id="2BBGNhFj9VwmDJDpPGrn-104" style="rounded=0;orthogonalLoop=1;jettySize=auto;html=1;" parent="2BBGNhFj9VwmDJDpPGrn-111" source="2BBGNhFj9VwmDJDpPGrn-42" edge="1">
          <mxGeometry relative="1" as="geometry">
            <mxPoint x="210" y="109.99999999999977" as="targetPoint" />
          </mxGeometry>
        </mxCell>
        <mxCell id="2BBGNhFj9VwmDJDpPGrn-42" value="Visa" style="rounded=1;whiteSpace=wrap;html=1;" parent="2BBGNhFj9VwmDJDpPGrn-111" vertex="1">
          <mxGeometry x="90" y="45.559999999999945" width="70" height="30" as="geometry" />
        </mxCell>
        <mxCell id="2BBGNhFj9VwmDJDpPGrn-81" value="" style="endArrow=none;html=1;rounded=0;strokeWidth=10;" parent="2BBGNhFj9VwmDJDpPGrn-111" edge="1">
          <mxGeometry width="50" height="50" relative="1" as="geometry">
            <mxPoint x="250.59000000000003" y="120" as="sourcePoint" />
            <mxPoint x="160" y="120" as="targetPoint" />
          </mxGeometry>
        </mxCell>
        <mxCell id="2BBGNhFj9VwmDJDpPGrn-39" value="QR Code Paypoo" style="rounded=1;whiteSpace=wrap;html=1;" parent="2BBGNhFj9VwmDJDpPGrn-111" vertex="1">
          <mxGeometry x="335" y="45.559999999999945" width="70" height="30" as="geometry" />
        </mxCell>
        <mxCell id="2BBGNhFj9VwmDJDpPGrn-38" value="Thẻ ATM" style="rounded=1;whiteSpace=wrap;html=1;" parent="2BBGNhFj9VwmDJDpPGrn-111" vertex="1">
          <mxGeometry y="45.559999999999945" width="70" height="30" as="geometry" />
        </mxCell>
        <mxCell id="2BBGNhFj9VwmDJDpPGrn-113" style="edgeStyle=orthogonalEdgeStyle;rounded=0;orthogonalLoop=1;jettySize=auto;html=1;endArrow=none;endFill=0;startArrow=classic;startFill=1;" parent="2BBGNhFj9VwmDJDpPGrn-3" edge="1">
          <mxGeometry relative="1" as="geometry">
            <mxPoint x="279.77" y="1230" as="targetPoint" />
            <mxPoint x="279.77" y="1280" as="sourcePoint" />
            <Array as="points">
              <mxPoint x="279.77" y="1230" />
            </Array>
          </mxGeometry>
        </mxCell>
        <mxCell id="2BBGNhFj9VwmDJDpPGrn-64" value="Nhập thông tin của hình thức thanh toán" style="rounded=1;whiteSpace=wrap;html=1;" parent="2BBGNhFj9VwmDJDpPGrn-3" vertex="1">
          <mxGeometry x="190" y="1280" width="180" height="60" as="geometry" />
        </mxCell>
        <mxCell id="3HSLFsi9o2FYeXKbJJw0-43" value="" style="ellipse;html=1;shape=endState;fillColor=#000000;strokeColor=#ff0000;" parent="2BBGNhFj9VwmDJDpPGrn-3" vertex="1">
          <mxGeometry x="265" y="1670" width="30" height="30" as="geometry" />
        </mxCell>
        <mxCell id="2BBGNhFj9VwmDJDpPGrn-79" value="" style="rhombus;whiteSpace=wrap;html=1;" parent="2BBGNhFj9VwmDJDpPGrn-3" vertex="1">
          <mxGeometry x="240" y="1405.56" width="80" height="80" as="geometry" />
        </mxCell>
        <mxCell id="2BBGNhFj9VwmDJDpPGrn-90" style="edgeStyle=orthogonalEdgeStyle;rounded=0;orthogonalLoop=1;jettySize=auto;html=1;entryX=0;entryY=0.5;entryDx=0;entryDy=0;" parent="2BBGNhFj9VwmDJDpPGrn-3" source="2BBGNhFj9VwmDJDpPGrn-79" target="2BBGNhFj9VwmDJDpPGrn-64" edge="1">
          <mxGeometry relative="1" as="geometry">
            <Array as="points">
              <mxPoint x="80" y="1446" />
              <mxPoint x="80" y="1310" />
            </Array>
          </mxGeometry>
        </mxCell>
        <mxCell id="2BBGNhFj9VwmDJDpPGrn-92" value="[Sai thông tin]" style="edgeLabel;html=1;align=center;verticalAlign=middle;resizable=0;points=[];" parent="2BBGNhFj9VwmDJDpPGrn-90" vertex="1" connectable="0">
          <mxGeometry x="-0.5463" y="-3" relative="1" as="geometry">
            <mxPoint as="offset" />
          </mxGeometry>
        </mxCell>
        <mxCell id="2BBGNhFj9VwmDJDpPGrn-91" style="edgeStyle=orthogonalEdgeStyle;rounded=0;orthogonalLoop=1;jettySize=auto;html=1;entryX=1;entryY=0.5;entryDx=0;entryDy=0;" parent="2BBGNhFj9VwmDJDpPGrn-3" source="2BBGNhFj9VwmDJDpPGrn-79" target="2BBGNhFj9VwmDJDpPGrn-89" edge="1">
          <mxGeometry relative="1" as="geometry">
            <Array as="points">
              <mxPoint x="500" y="1446" />
              <mxPoint x="500" y="1030" />
            </Array>
          </mxGeometry>
        </mxCell>
        <mxCell id="2BBGNhFj9VwmDJDpPGrn-93" value="[Không đủ số dư để thanh toán]" style="edgeLabel;html=1;align=center;verticalAlign=middle;resizable=0;points=[];" parent="2BBGNhFj9VwmDJDpPGrn-91" vertex="1" connectable="0">
          <mxGeometry x="-0.6399" y="4" relative="1" as="geometry">
            <mxPoint x="-20" y="4" as="offset" />
          </mxGeometry>
        </mxCell>
        <mxCell id="2BBGNhFj9VwmDJDpPGrn-94" style="edgeStyle=orthogonalEdgeStyle;rounded=0;orthogonalLoop=1;jettySize=auto;html=1;entryX=0.5;entryY=0;entryDx=0;entryDy=0;" parent="2BBGNhFj9VwmDJDpPGrn-3" source="2BBGNhFj9VwmDJDpPGrn-79" target="2BBGNhFj9VwmDJDpPGrn-84" edge="1">
          <mxGeometry relative="1" as="geometry" />
        </mxCell>
        <mxCell id="2BBGNhFj9VwmDJDpPGrn-95" value="[Thông tin hợp lệ và đủ tiền thanh toán]" style="edgeLabel;html=1;align=center;verticalAlign=middle;resizable=0;points=[];" parent="2BBGNhFj9VwmDJDpPGrn-94" vertex="1" connectable="0">
          <mxGeometry x="-0.415" y="-3" relative="1" as="geometry">
            <mxPoint x="8" y="12" as="offset" />
          </mxGeometry>
        </mxCell>
        <mxCell id="3HSLFsi9o2FYeXKbJJw0-13" style="edgeStyle=orthogonalEdgeStyle;rounded=0;orthogonalLoop=1;jettySize=auto;html=1;entryX=0;entryY=0.5;entryDx=0;entryDy=0;" parent="1" source="2BBGNhFj9VwmDJDpPGrn-5" target="2BBGNhFj9VwmDJDpPGrn-7" edge="1">
          <mxGeometry relative="1" as="geometry" />
        </mxCell>
        <mxCell id="3HSLFsi9o2FYeXKbJJw0-20" style="edgeStyle=orthogonalEdgeStyle;rounded=0;orthogonalLoop=1;jettySize=auto;html=1;" parent="1" source="2BBGNhFj9VwmDJDpPGrn-15" target="2BBGNhFj9VwmDJDpPGrn-16" edge="1">
          <mxGeometry relative="1" as="geometry" />
        </mxCell>
        <mxCell id="3HSLFsi9o2FYeXKbJJw0-21" style="edgeStyle=orthogonalEdgeStyle;rounded=0;orthogonalLoop=1;jettySize=auto;html=1;entryX=0.5;entryY=0;entryDx=0;entryDy=0;" parent="1" source="2BBGNhFj9VwmDJDpPGrn-16" target="2BBGNhFj9VwmDJDpPGrn-17" edge="1">
          <mxGeometry relative="1" as="geometry">
            <Array as="points">
              <mxPoint x="740" y="590" />
              <mxPoint x="240" y="590" />
            </Array>
          </mxGeometry>
        </mxCell>
        <mxCell id="3HSLFsi9o2FYeXKbJJw0-27" style="edgeStyle=orthogonalEdgeStyle;rounded=0;orthogonalLoop=1;jettySize=auto;html=1;entryX=0;entryY=0.5;entryDx=0;entryDy=0;" parent="1" source="2BBGNhFj9VwmDJDpPGrn-47" target="2BBGNhFj9VwmDJDpPGrn-48" edge="1">
          <mxGeometry relative="1" as="geometry" />
        </mxCell>
        <mxCell id="n1flwWkXuyaMfJvhmv4J-6" value="&lt;b&gt;&lt;font style=&quot;font-size: 20px;&quot;&gt;Đặt Hàng&lt;/font&gt;&lt;/b&gt;" style="rounded=0;whiteSpace=wrap;html=1;" vertex="1" parent="1">
          <mxGeometry x="20" width="980" height="31" as="geometry" />
        </mxCell>
      </root>
    </mxGraphModel>
  </diagram>
</mxfile>
